<mxfile host="app.diagrams.net" modified="2024-06-29T08:25:59.435Z" agent="Mozilla/5.0 (Windows NT 10.0; Win64; x64) AppleWebKit/537.36 (KHTML, like Gecko) Chrome/123.0.0.0 Safari/537.36 OPR/109.0.0.0 (Edition std-1)" etag="Hk6hxYNP9R0087sqCpFq" version="24.6.4" type="device">
  <diagram id="C5RBs43oDa-KdzZeNtuy" name="Page-1">
    <mxGraphModel dx="1643" dy="889" grid="1" gridSize="10" guides="1" tooltips="1" connect="1" arrows="1" fold="1" page="1" pageScale="1" pageWidth="827" pageHeight="1169" math="0" shadow="0">
      <root>
        <mxCell id="WIyWlLk6GJQsqaUBKTNV-0" />
        <mxCell id="WIyWlLk6GJQsqaUBKTNV-1" parent="WIyWlLk6GJQsqaUBKTNV-0" />
        <mxCell id="pm6Vg-szQLmMaOXTMPoA-1" value="File Analysis" style="rounded=1;whiteSpace=wrap;html=1;fontSize=12;glass=0;strokeWidth=1;shadow=0;" vertex="1" parent="WIyWlLk6GJQsqaUBKTNV-1">
          <mxGeometry x="560" y="160" width="120" height="40" as="geometry" />
        </mxCell>
        <mxCell id="pm6Vg-szQLmMaOXTMPoA-3" value="Start" style="rounded=1;whiteSpace=wrap;html=1;fontSize=12;glass=0;strokeWidth=1;shadow=0;" vertex="1" parent="WIyWlLk6GJQsqaUBKTNV-1">
          <mxGeometry x="560" y="80" width="120" height="40" as="geometry" />
        </mxCell>
        <mxCell id="pm6Vg-szQLmMaOXTMPoA-5" value="Calculate Metrics" style="rounded=1;whiteSpace=wrap;html=1;fontSize=12;glass=0;strokeWidth=1;shadow=0;" vertex="1" parent="WIyWlLk6GJQsqaUBKTNV-1">
          <mxGeometry x="560" y="240" width="120" height="40" as="geometry" />
        </mxCell>
        <mxCell id="pm6Vg-szQLmMaOXTMPoA-6" value="If Threshold" style="rounded=1;whiteSpace=wrap;html=1;fontSize=12;glass=0;strokeWidth=1;shadow=0;fontStyle=1" vertex="1" parent="WIyWlLk6GJQsqaUBKTNV-1">
          <mxGeometry x="480" y="320" width="120" height="40" as="geometry" />
        </mxCell>
        <mxCell id="pm6Vg-szQLmMaOXTMPoA-7" value="" style="rounded=0;html=1;jettySize=auto;orthogonalLoop=1;fontSize=11;endArrow=block;endFill=0;endSize=8;strokeWidth=1;shadow=0;labelBackgroundColor=none;edgeStyle=orthogonalEdgeStyle;" edge="1" parent="WIyWlLk6GJQsqaUBKTNV-1" source="pm6Vg-szQLmMaOXTMPoA-1" target="pm6Vg-szQLmMaOXTMPoA-5">
          <mxGeometry relative="1" as="geometry">
            <mxPoint x="630" y="140" as="sourcePoint" />
            <mxPoint x="630" y="180" as="targetPoint" />
          </mxGeometry>
        </mxCell>
        <mxCell id="pm6Vg-szQLmMaOXTMPoA-8" value="" style="rounded=0;html=1;jettySize=auto;orthogonalLoop=1;fontSize=11;endArrow=block;endFill=0;endSize=8;strokeWidth=1;shadow=0;labelBackgroundColor=none;" edge="1" parent="WIyWlLk6GJQsqaUBKTNV-1" source="pm6Vg-szQLmMaOXTMPoA-5" target="pm6Vg-szQLmMaOXTMPoA-6">
          <mxGeometry relative="1" as="geometry">
            <mxPoint x="630" y="220" as="sourcePoint" />
            <mxPoint x="630" y="260" as="targetPoint" />
          </mxGeometry>
        </mxCell>
        <mxCell id="pm6Vg-szQLmMaOXTMPoA-9" value="Methods" style="edgeLabel;html=1;align=center;verticalAlign=middle;resizable=0;points=[];" vertex="1" connectable="0" parent="pm6Vg-szQLmMaOXTMPoA-8">
          <mxGeometry x="-0.352" relative="1" as="geometry">
            <mxPoint x="-3" y="4" as="offset" />
          </mxGeometry>
        </mxCell>
        <mxCell id="pm6Vg-szQLmMaOXTMPoA-10" value="If Threshold" style="rounded=1;whiteSpace=wrap;html=1;fontSize=12;glass=0;strokeWidth=1;shadow=0;fontStyle=1" vertex="1" parent="WIyWlLk6GJQsqaUBKTNV-1">
          <mxGeometry x="640" y="320" width="120" height="40" as="geometry" />
        </mxCell>
        <mxCell id="pm6Vg-szQLmMaOXTMPoA-11" value="" style="rounded=0;html=1;jettySize=auto;orthogonalLoop=1;fontSize=11;endArrow=block;endFill=0;endSize=8;strokeWidth=1;shadow=0;labelBackgroundColor=none;" edge="1" parent="WIyWlLk6GJQsqaUBKTNV-1" source="pm6Vg-szQLmMaOXTMPoA-5" target="pm6Vg-szQLmMaOXTMPoA-10">
          <mxGeometry relative="1" as="geometry">
            <mxPoint x="610" y="300" as="sourcePoint" />
            <mxPoint x="570" y="340" as="targetPoint" />
          </mxGeometry>
        </mxCell>
        <mxCell id="pm6Vg-szQLmMaOXTMPoA-12" value="Classes" style="edgeLabel;html=1;align=center;verticalAlign=middle;resizable=0;points=[];" vertex="1" connectable="0" parent="pm6Vg-szQLmMaOXTMPoA-11">
          <mxGeometry x="-0.352" relative="1" as="geometry">
            <mxPoint x="-3" y="4" as="offset" />
          </mxGeometry>
        </mxCell>
        <mxCell id="pm6Vg-szQLmMaOXTMPoA-13" value="&lt;div&gt;&lt;br&gt;&lt;/div&gt;If Threshold Met?" style="rhombus;whiteSpace=wrap;html=1;shadow=0;fontFamily=Helvetica;fontSize=12;align=center;strokeWidth=1;spacing=6;spacingTop=-4;fontStyle=1" vertex="1" parent="WIyWlLk6GJQsqaUBKTNV-1">
          <mxGeometry x="570" y="400" width="100" height="80" as="geometry" />
        </mxCell>
        <mxCell id="pm6Vg-szQLmMaOXTMPoA-14" value="" style="rounded=0;html=1;jettySize=auto;orthogonalLoop=1;fontSize=11;endArrow=block;endFill=0;endSize=8;strokeWidth=1;shadow=0;labelBackgroundColor=none;entryX=0.5;entryY=0;entryDx=0;entryDy=0;" edge="1" parent="WIyWlLk6GJQsqaUBKTNV-1" source="pm6Vg-szQLmMaOXTMPoA-6" target="pm6Vg-szQLmMaOXTMPoA-13">
          <mxGeometry relative="1" as="geometry">
            <mxPoint x="630" y="220" as="sourcePoint" />
            <mxPoint x="630" y="260" as="targetPoint" />
          </mxGeometry>
        </mxCell>
        <mxCell id="pm6Vg-szQLmMaOXTMPoA-15" value="" style="rounded=0;html=1;jettySize=auto;orthogonalLoop=1;fontSize=11;endArrow=block;endFill=0;endSize=8;strokeWidth=1;shadow=0;labelBackgroundColor=none;entryX=0.5;entryY=0;entryDx=0;entryDy=0;" edge="1" parent="WIyWlLk6GJQsqaUBKTNV-1" source="pm6Vg-szQLmMaOXTMPoA-10" target="pm6Vg-szQLmMaOXTMPoA-13">
          <mxGeometry relative="1" as="geometry">
            <mxPoint x="577" y="380" as="sourcePoint" />
            <mxPoint x="630" y="420" as="targetPoint" />
          </mxGeometry>
        </mxCell>
        <mxCell id="pm6Vg-szQLmMaOXTMPoA-16" value="End" style="rounded=1;whiteSpace=wrap;html=1;fontSize=12;glass=0;strokeWidth=1;shadow=0;" vertex="1" parent="WIyWlLk6GJQsqaUBKTNV-1">
          <mxGeometry x="730" y="420" width="120" height="40" as="geometry" />
        </mxCell>
        <mxCell id="pm6Vg-szQLmMaOXTMPoA-17" value="" style="rounded=0;html=1;jettySize=auto;orthogonalLoop=1;fontSize=11;endArrow=block;endFill=0;endSize=8;strokeWidth=1;shadow=0;labelBackgroundColor=none;exitX=1;exitY=0.5;exitDx=0;exitDy=0;" edge="1" parent="WIyWlLk6GJQsqaUBKTNV-1" source="pm6Vg-szQLmMaOXTMPoA-13" target="pm6Vg-szQLmMaOXTMPoA-16">
          <mxGeometry relative="1" as="geometry">
            <mxPoint x="683" y="381" as="sourcePoint" />
            <mxPoint x="630" y="421" as="targetPoint" />
          </mxGeometry>
        </mxCell>
        <mxCell id="pm6Vg-szQLmMaOXTMPoA-18" value="No" style="edgeLabel;html=1;align=center;verticalAlign=middle;resizable=0;points=[];" vertex="1" connectable="0" parent="pm6Vg-szQLmMaOXTMPoA-17">
          <mxGeometry x="-0.133" y="1" relative="1" as="geometry">
            <mxPoint as="offset" />
          </mxGeometry>
        </mxCell>
        <mxCell id="pm6Vg-szQLmMaOXTMPoA-19" value="Find Extractable Candidates" style="rounded=1;whiteSpace=wrap;html=1;fontSize=12;glass=0;strokeWidth=1;shadow=0;" vertex="1" parent="WIyWlLk6GJQsqaUBKTNV-1">
          <mxGeometry x="560" y="520" width="120" height="40" as="geometry" />
        </mxCell>
        <mxCell id="pm6Vg-szQLmMaOXTMPoA-22" value="" style="rounded=0;html=1;jettySize=auto;orthogonalLoop=1;fontSize=11;endArrow=block;endFill=0;endSize=8;strokeWidth=1;shadow=0;labelBackgroundColor=none;" edge="1" parent="WIyWlLk6GJQsqaUBKTNV-1" source="pm6Vg-szQLmMaOXTMPoA-13" target="pm6Vg-szQLmMaOXTMPoA-19">
          <mxGeometry relative="1" as="geometry">
            <mxPoint x="683" y="370" as="sourcePoint" />
            <mxPoint x="630" y="410" as="targetPoint" />
          </mxGeometry>
        </mxCell>
        <mxCell id="pm6Vg-szQLmMaOXTMPoA-30" value="Yes" style="edgeLabel;html=1;align=center;verticalAlign=middle;resizable=0;points=[];" vertex="1" connectable="0" parent="pm6Vg-szQLmMaOXTMPoA-22">
          <mxGeometry x="-0.1043" y="2" relative="1" as="geometry">
            <mxPoint x="-2" y="-3" as="offset" />
          </mxGeometry>
        </mxCell>
        <mxCell id="pm6Vg-szQLmMaOXTMPoA-25" value="" style="rounded=0;html=1;jettySize=auto;orthogonalLoop=1;fontSize=11;endArrow=block;endFill=0;endSize=8;strokeWidth=1;shadow=0;labelBackgroundColor=none;" edge="1" parent="WIyWlLk6GJQsqaUBKTNV-1" source="pm6Vg-szQLmMaOXTMPoA-19">
          <mxGeometry relative="1" as="geometry">
            <mxPoint x="630" y="490" as="sourcePoint" />
            <mxPoint x="620" y="600" as="targetPoint" />
          </mxGeometry>
        </mxCell>
        <mxCell id="pm6Vg-szQLmMaOXTMPoA-26" value="Any Candidates?&lt;div&gt;&lt;/div&gt;" style="rhombus;whiteSpace=wrap;html=1;shadow=0;fontFamily=Helvetica;fontSize=12;align=center;strokeWidth=1;spacing=6;spacingTop=-4;" vertex="1" parent="WIyWlLk6GJQsqaUBKTNV-1">
          <mxGeometry x="570" y="600" width="100" height="80" as="geometry" />
        </mxCell>
        <mxCell id="pm6Vg-szQLmMaOXTMPoA-27" value="End" style="rounded=1;whiteSpace=wrap;html=1;fontSize=12;glass=0;strokeWidth=1;shadow=0;" vertex="1" parent="WIyWlLk6GJQsqaUBKTNV-1">
          <mxGeometry x="730" y="620" width="120" height="40" as="geometry" />
        </mxCell>
        <mxCell id="pm6Vg-szQLmMaOXTMPoA-28" value="" style="rounded=0;html=1;jettySize=auto;orthogonalLoop=1;fontSize=11;endArrow=block;endFill=0;endSize=8;strokeWidth=1;shadow=0;labelBackgroundColor=none;exitX=1;exitY=0.5;exitDx=0;exitDy=0;" edge="1" parent="WIyWlLk6GJQsqaUBKTNV-1" target="pm6Vg-szQLmMaOXTMPoA-27">
          <mxGeometry relative="1" as="geometry">
            <mxPoint x="670" y="640" as="sourcePoint" />
            <mxPoint x="630" y="621" as="targetPoint" />
          </mxGeometry>
        </mxCell>
        <mxCell id="pm6Vg-szQLmMaOXTMPoA-29" value="No" style="edgeLabel;html=1;align=center;verticalAlign=middle;resizable=0;points=[];" vertex="1" connectable="0" parent="pm6Vg-szQLmMaOXTMPoA-28">
          <mxGeometry x="-0.133" y="1" relative="1" as="geometry">
            <mxPoint as="offset" />
          </mxGeometry>
        </mxCell>
        <mxCell id="pm6Vg-szQLmMaOXTMPoA-31" value="" style="rounded=0;html=1;jettySize=auto;orthogonalLoop=1;fontSize=11;endArrow=block;endFill=0;endSize=8;strokeWidth=1;shadow=0;labelBackgroundColor=none;exitX=0.5;exitY=1;exitDx=0;exitDy=0;" edge="1" parent="WIyWlLk6GJQsqaUBKTNV-1" source="pm6Vg-szQLmMaOXTMPoA-26" target="pm6Vg-szQLmMaOXTMPoA-33">
          <mxGeometry relative="1" as="geometry">
            <mxPoint x="630" y="490" as="sourcePoint" />
            <mxPoint x="630" y="530" as="targetPoint" />
          </mxGeometry>
        </mxCell>
        <mxCell id="pm6Vg-szQLmMaOXTMPoA-32" value="Yes" style="edgeLabel;html=1;align=center;verticalAlign=middle;resizable=0;points=[];" vertex="1" connectable="0" parent="pm6Vg-szQLmMaOXTMPoA-31">
          <mxGeometry x="-0.1043" y="2" relative="1" as="geometry">
            <mxPoint x="-2" y="-3" as="offset" />
          </mxGeometry>
        </mxCell>
        <mxCell id="pm6Vg-szQLmMaOXTMPoA-33" value="Present Recommendations" style="rounded=1;whiteSpace=wrap;html=1;fontSize=12;glass=0;strokeWidth=1;shadow=0;" vertex="1" parent="WIyWlLk6GJQsqaUBKTNV-1">
          <mxGeometry x="560" y="720" width="120" height="40" as="geometry" />
        </mxCell>
        <mxCell id="pm6Vg-szQLmMaOXTMPoA-35" value="" style="rounded=0;html=1;jettySize=auto;orthogonalLoop=1;fontSize=11;endArrow=block;endFill=0;endSize=8;strokeWidth=1;shadow=0;labelBackgroundColor=none;edgeStyle=orthogonalEdgeStyle;" edge="1" parent="WIyWlLk6GJQsqaUBKTNV-1" source="pm6Vg-szQLmMaOXTMPoA-3" target="pm6Vg-szQLmMaOXTMPoA-1">
          <mxGeometry relative="1" as="geometry">
            <mxPoint x="630" y="210" as="sourcePoint" />
            <mxPoint x="630" y="250" as="targetPoint" />
          </mxGeometry>
        </mxCell>
        <mxCell id="pm6Vg-szQLmMaOXTMPoA-36" value="User Action" style="rounded=1;whiteSpace=wrap;html=1;fontSize=12;glass=0;strokeWidth=1;shadow=0;" vertex="1" parent="WIyWlLk6GJQsqaUBKTNV-1">
          <mxGeometry x="560" y="800" width="120" height="40" as="geometry" />
        </mxCell>
        <mxCell id="pm6Vg-szQLmMaOXTMPoA-37" value="" style="rounded=0;html=1;jettySize=auto;orthogonalLoop=1;fontSize=11;endArrow=block;endFill=0;endSize=8;strokeWidth=1;shadow=0;labelBackgroundColor=none;" edge="1" parent="WIyWlLk6GJQsqaUBKTNV-1" source="pm6Vg-szQLmMaOXTMPoA-33" target="pm6Vg-szQLmMaOXTMPoA-36">
          <mxGeometry relative="1" as="geometry">
            <mxPoint x="620" y="790" as="sourcePoint" />
            <mxPoint x="630" y="610" as="targetPoint" />
          </mxGeometry>
        </mxCell>
        <mxCell id="pm6Vg-szQLmMaOXTMPoA-38" value="" style="rounded=0;html=1;jettySize=auto;orthogonalLoop=1;fontSize=11;endArrow=block;endFill=0;endSize=8;strokeWidth=1;shadow=0;labelBackgroundColor=none;edgeStyle=orthogonalEdgeStyle;exitX=0.5;exitY=0;exitDx=0;exitDy=0;entryX=1;entryY=0.5;entryDx=0;entryDy=0;" edge="1" parent="WIyWlLk6GJQsqaUBKTNV-1" source="pm6Vg-szQLmMaOXTMPoA-16" target="pm6Vg-szQLmMaOXTMPoA-3">
          <mxGeometry relative="1" as="geometry">
            <mxPoint x="630" y="130" as="sourcePoint" />
            <mxPoint x="630" y="170" as="targetPoint" />
          </mxGeometry>
        </mxCell>
        <mxCell id="pm6Vg-szQLmMaOXTMPoA-40" value="" style="rounded=0;html=1;jettySize=auto;orthogonalLoop=1;fontSize=11;endArrow=block;endFill=0;endSize=8;strokeWidth=1;shadow=0;labelBackgroundColor=none;exitX=1;exitY=0.5;exitDx=0;exitDy=0;edgeStyle=orthogonalEdgeStyle;" edge="1" parent="WIyWlLk6GJQsqaUBKTNV-1" source="pm6Vg-szQLmMaOXTMPoA-27" target="pm6Vg-szQLmMaOXTMPoA-3">
          <mxGeometry relative="1" as="geometry">
            <mxPoint x="630" y="570" as="sourcePoint" />
            <mxPoint x="910" y="100" as="targetPoint" />
            <Array as="points">
              <mxPoint x="870" y="640" />
              <mxPoint x="870" y="100" />
            </Array>
          </mxGeometry>
        </mxCell>
        <mxCell id="pm6Vg-szQLmMaOXTMPoA-41" value="End" style="rounded=1;whiteSpace=wrap;html=1;fontSize=12;glass=0;strokeWidth=1;shadow=0;" vertex="1" parent="WIyWlLk6GJQsqaUBKTNV-1">
          <mxGeometry x="560" y="880" width="120" height="40" as="geometry" />
        </mxCell>
        <mxCell id="pm6Vg-szQLmMaOXTMPoA-42" value="" style="rounded=0;html=1;jettySize=auto;orthogonalLoop=1;fontSize=11;endArrow=block;endFill=0;endSize=8;strokeWidth=1;shadow=0;labelBackgroundColor=none;" edge="1" parent="WIyWlLk6GJQsqaUBKTNV-1">
          <mxGeometry relative="1" as="geometry">
            <mxPoint x="619.5" y="840" as="sourcePoint" />
            <mxPoint x="619.5" y="880" as="targetPoint" />
          </mxGeometry>
        </mxCell>
        <mxCell id="pm6Vg-szQLmMaOXTMPoA-43" value="" style="rounded=0;html=1;jettySize=auto;orthogonalLoop=1;fontSize=11;endArrow=block;endFill=0;endSize=8;strokeWidth=1;shadow=0;labelBackgroundColor=none;edgeStyle=orthogonalEdgeStyle;entryX=0;entryY=0.5;entryDx=0;entryDy=0;" edge="1" parent="WIyWlLk6GJQsqaUBKTNV-1" source="pm6Vg-szQLmMaOXTMPoA-41" target="pm6Vg-szQLmMaOXTMPoA-3">
          <mxGeometry relative="1" as="geometry">
            <mxPoint x="860" y="650" as="sourcePoint" />
            <mxPoint x="690" y="110" as="targetPoint" />
            <Array as="points">
              <mxPoint x="460" y="900" />
              <mxPoint x="460" y="100" />
            </Array>
          </mxGeometry>
        </mxCell>
        <mxCell id="pm6Vg-szQLmMaOXTMPoA-44" value="File Analysis" style="rounded=1;whiteSpace=wrap;html=1;fontSize=12;glass=0;strokeWidth=1;shadow=0;" vertex="1" parent="WIyWlLk6GJQsqaUBKTNV-1">
          <mxGeometry x="1069.92" y="160" width="120" height="40" as="geometry" />
        </mxCell>
        <mxCell id="pm6Vg-szQLmMaOXTMPoA-45" value="Start" style="rounded=1;whiteSpace=wrap;html=1;fontSize=12;glass=0;strokeWidth=1;shadow=0;" vertex="1" parent="WIyWlLk6GJQsqaUBKTNV-1">
          <mxGeometry x="1069.92" y="80" width="120" height="40" as="geometry" />
        </mxCell>
        <mxCell id="pm6Vg-szQLmMaOXTMPoA-46" value="Calculate Metrics" style="rounded=1;whiteSpace=wrap;html=1;fontSize=12;glass=0;strokeWidth=1;shadow=0;" vertex="1" parent="WIyWlLk6GJQsqaUBKTNV-1">
          <mxGeometry x="1069.92" y="240" width="120" height="40" as="geometry" />
        </mxCell>
        <mxCell id="pm6Vg-szQLmMaOXTMPoA-47" value="Classification Model&lt;div&gt;(Knowledge Base)&lt;/div&gt;" style="rounded=1;whiteSpace=wrap;html=1;fontSize=12;glass=0;strokeWidth=1;shadow=0;fontStyle=1" vertex="1" parent="WIyWlLk6GJQsqaUBKTNV-1">
          <mxGeometry x="989.9200000000001" y="320" width="120" height="40" as="geometry" />
        </mxCell>
        <mxCell id="pm6Vg-szQLmMaOXTMPoA-48" value="" style="rounded=0;html=1;jettySize=auto;orthogonalLoop=1;fontSize=11;endArrow=block;endFill=0;endSize=8;strokeWidth=1;shadow=0;labelBackgroundColor=none;edgeStyle=orthogonalEdgeStyle;" edge="1" parent="WIyWlLk6GJQsqaUBKTNV-1" source="pm6Vg-szQLmMaOXTMPoA-44" target="pm6Vg-szQLmMaOXTMPoA-46">
          <mxGeometry relative="1" as="geometry">
            <mxPoint x="1139.92" y="140" as="sourcePoint" />
            <mxPoint x="1139.92" y="180" as="targetPoint" />
          </mxGeometry>
        </mxCell>
        <mxCell id="pm6Vg-szQLmMaOXTMPoA-49" value="" style="rounded=0;html=1;jettySize=auto;orthogonalLoop=1;fontSize=11;endArrow=block;endFill=0;endSize=8;strokeWidth=1;shadow=0;labelBackgroundColor=none;" edge="1" parent="WIyWlLk6GJQsqaUBKTNV-1" source="pm6Vg-szQLmMaOXTMPoA-46" target="pm6Vg-szQLmMaOXTMPoA-47">
          <mxGeometry relative="1" as="geometry">
            <mxPoint x="1139.92" y="220" as="sourcePoint" />
            <mxPoint x="1139.92" y="260" as="targetPoint" />
          </mxGeometry>
        </mxCell>
        <mxCell id="pm6Vg-szQLmMaOXTMPoA-50" value="Methods" style="edgeLabel;html=1;align=center;verticalAlign=middle;resizable=0;points=[];" vertex="1" connectable="0" parent="pm6Vg-szQLmMaOXTMPoA-49">
          <mxGeometry x="-0.352" relative="1" as="geometry">
            <mxPoint x="-3" y="4" as="offset" />
          </mxGeometry>
        </mxCell>
        <mxCell id="pm6Vg-szQLmMaOXTMPoA-51" value="Classification Model&lt;div&gt;(Knowledge Base)&lt;/div&gt;" style="rounded=1;whiteSpace=wrap;html=1;fontSize=12;glass=0;strokeWidth=1;shadow=0;fontStyle=1" vertex="1" parent="WIyWlLk6GJQsqaUBKTNV-1">
          <mxGeometry x="1149.92" y="320" width="120" height="40" as="geometry" />
        </mxCell>
        <mxCell id="pm6Vg-szQLmMaOXTMPoA-52" value="" style="rounded=0;html=1;jettySize=auto;orthogonalLoop=1;fontSize=11;endArrow=block;endFill=0;endSize=8;strokeWidth=1;shadow=0;labelBackgroundColor=none;" edge="1" parent="WIyWlLk6GJQsqaUBKTNV-1" source="pm6Vg-szQLmMaOXTMPoA-46" target="pm6Vg-szQLmMaOXTMPoA-51">
          <mxGeometry relative="1" as="geometry">
            <mxPoint x="1119.92" y="300" as="sourcePoint" />
            <mxPoint x="1079.92" y="340" as="targetPoint" />
          </mxGeometry>
        </mxCell>
        <mxCell id="pm6Vg-szQLmMaOXTMPoA-53" value="Classes" style="edgeLabel;html=1;align=center;verticalAlign=middle;resizable=0;points=[];" vertex="1" connectable="0" parent="pm6Vg-szQLmMaOXTMPoA-52">
          <mxGeometry x="-0.352" relative="1" as="geometry">
            <mxPoint x="-3" y="4" as="offset" />
          </mxGeometry>
        </mxCell>
        <mxCell id="pm6Vg-szQLmMaOXTMPoA-54" value="Positive Prediction?&lt;div&gt;&lt;/div&gt;" style="rhombus;whiteSpace=wrap;html=1;shadow=0;fontFamily=Helvetica;fontSize=12;align=center;strokeWidth=1;spacing=6;spacingTop=-4;fontStyle=1" vertex="1" parent="WIyWlLk6GJQsqaUBKTNV-1">
          <mxGeometry x="1079.92" y="400" width="100" height="80" as="geometry" />
        </mxCell>
        <mxCell id="pm6Vg-szQLmMaOXTMPoA-55" value="" style="rounded=0;html=1;jettySize=auto;orthogonalLoop=1;fontSize=11;endArrow=block;endFill=0;endSize=8;strokeWidth=1;shadow=0;labelBackgroundColor=none;entryX=0.5;entryY=0;entryDx=0;entryDy=0;" edge="1" parent="WIyWlLk6GJQsqaUBKTNV-1" source="pm6Vg-szQLmMaOXTMPoA-47" target="pm6Vg-szQLmMaOXTMPoA-54">
          <mxGeometry relative="1" as="geometry">
            <mxPoint x="1139.92" y="220" as="sourcePoint" />
            <mxPoint x="1139.92" y="260" as="targetPoint" />
          </mxGeometry>
        </mxCell>
        <mxCell id="pm6Vg-szQLmMaOXTMPoA-56" value="" style="rounded=0;html=1;jettySize=auto;orthogonalLoop=1;fontSize=11;endArrow=block;endFill=0;endSize=8;strokeWidth=1;shadow=0;labelBackgroundColor=none;entryX=0.5;entryY=0;entryDx=0;entryDy=0;" edge="1" parent="WIyWlLk6GJQsqaUBKTNV-1" source="pm6Vg-szQLmMaOXTMPoA-51" target="pm6Vg-szQLmMaOXTMPoA-54">
          <mxGeometry relative="1" as="geometry">
            <mxPoint x="1086.92" y="380" as="sourcePoint" />
            <mxPoint x="1139.92" y="420" as="targetPoint" />
          </mxGeometry>
        </mxCell>
        <mxCell id="pm6Vg-szQLmMaOXTMPoA-57" value="End" style="rounded=1;whiteSpace=wrap;html=1;fontSize=12;glass=0;strokeWidth=1;shadow=0;" vertex="1" parent="WIyWlLk6GJQsqaUBKTNV-1">
          <mxGeometry x="1239.92" y="420" width="120" height="40" as="geometry" />
        </mxCell>
        <mxCell id="pm6Vg-szQLmMaOXTMPoA-58" value="" style="rounded=0;html=1;jettySize=auto;orthogonalLoop=1;fontSize=11;endArrow=block;endFill=0;endSize=8;strokeWidth=1;shadow=0;labelBackgroundColor=none;exitX=1;exitY=0.5;exitDx=0;exitDy=0;" edge="1" parent="WIyWlLk6GJQsqaUBKTNV-1" source="pm6Vg-szQLmMaOXTMPoA-54" target="pm6Vg-szQLmMaOXTMPoA-57">
          <mxGeometry relative="1" as="geometry">
            <mxPoint x="1192.92" y="381" as="sourcePoint" />
            <mxPoint x="1139.92" y="421" as="targetPoint" />
          </mxGeometry>
        </mxCell>
        <mxCell id="pm6Vg-szQLmMaOXTMPoA-59" value="No" style="edgeLabel;html=1;align=center;verticalAlign=middle;resizable=0;points=[];" vertex="1" connectable="0" parent="pm6Vg-szQLmMaOXTMPoA-58">
          <mxGeometry x="-0.133" y="1" relative="1" as="geometry">
            <mxPoint as="offset" />
          </mxGeometry>
        </mxCell>
        <mxCell id="pm6Vg-szQLmMaOXTMPoA-60" value="Find Extractable Candidates" style="rounded=1;whiteSpace=wrap;html=1;fontSize=12;glass=0;strokeWidth=1;shadow=0;" vertex="1" parent="WIyWlLk6GJQsqaUBKTNV-1">
          <mxGeometry x="1069.92" y="520" width="120" height="40" as="geometry" />
        </mxCell>
        <mxCell id="pm6Vg-szQLmMaOXTMPoA-61" value="" style="rounded=0;html=1;jettySize=auto;orthogonalLoop=1;fontSize=11;endArrow=block;endFill=0;endSize=8;strokeWidth=1;shadow=0;labelBackgroundColor=none;" edge="1" parent="WIyWlLk6GJQsqaUBKTNV-1" source="pm6Vg-szQLmMaOXTMPoA-54" target="pm6Vg-szQLmMaOXTMPoA-60">
          <mxGeometry relative="1" as="geometry">
            <mxPoint x="1192.92" y="370" as="sourcePoint" />
            <mxPoint x="1139.92" y="410" as="targetPoint" />
          </mxGeometry>
        </mxCell>
        <mxCell id="pm6Vg-szQLmMaOXTMPoA-62" value="Yes" style="edgeLabel;html=1;align=center;verticalAlign=middle;resizable=0;points=[];" vertex="1" connectable="0" parent="pm6Vg-szQLmMaOXTMPoA-61">
          <mxGeometry x="-0.1043" y="2" relative="1" as="geometry">
            <mxPoint x="-2" y="-3" as="offset" />
          </mxGeometry>
        </mxCell>
        <mxCell id="pm6Vg-szQLmMaOXTMPoA-63" value="" style="rounded=0;html=1;jettySize=auto;orthogonalLoop=1;fontSize=11;endArrow=block;endFill=0;endSize=8;strokeWidth=1;shadow=0;labelBackgroundColor=none;" edge="1" parent="WIyWlLk6GJQsqaUBKTNV-1" source="pm6Vg-szQLmMaOXTMPoA-60">
          <mxGeometry relative="1" as="geometry">
            <mxPoint x="1139.92" y="490" as="sourcePoint" />
            <mxPoint x="1129.92" y="600" as="targetPoint" />
          </mxGeometry>
        </mxCell>
        <mxCell id="pm6Vg-szQLmMaOXTMPoA-64" value="Any Candidates?&lt;div&gt;&lt;/div&gt;" style="rhombus;whiteSpace=wrap;html=1;shadow=0;fontFamily=Helvetica;fontSize=12;align=center;strokeWidth=1;spacing=6;spacingTop=-4;" vertex="1" parent="WIyWlLk6GJQsqaUBKTNV-1">
          <mxGeometry x="1079.92" y="600" width="100" height="80" as="geometry" />
        </mxCell>
        <mxCell id="pm6Vg-szQLmMaOXTMPoA-65" value="End" style="rounded=1;whiteSpace=wrap;html=1;fontSize=12;glass=0;strokeWidth=1;shadow=0;" vertex="1" parent="WIyWlLk6GJQsqaUBKTNV-1">
          <mxGeometry x="1239.92" y="620" width="120" height="40" as="geometry" />
        </mxCell>
        <mxCell id="pm6Vg-szQLmMaOXTMPoA-66" value="" style="rounded=0;html=1;jettySize=auto;orthogonalLoop=1;fontSize=11;endArrow=block;endFill=0;endSize=8;strokeWidth=1;shadow=0;labelBackgroundColor=none;exitX=1;exitY=0.5;exitDx=0;exitDy=0;" edge="1" parent="WIyWlLk6GJQsqaUBKTNV-1" target="pm6Vg-szQLmMaOXTMPoA-65">
          <mxGeometry relative="1" as="geometry">
            <mxPoint x="1179.92" y="640" as="sourcePoint" />
            <mxPoint x="1139.92" y="621" as="targetPoint" />
          </mxGeometry>
        </mxCell>
        <mxCell id="pm6Vg-szQLmMaOXTMPoA-67" value="No" style="edgeLabel;html=1;align=center;verticalAlign=middle;resizable=0;points=[];" vertex="1" connectable="0" parent="pm6Vg-szQLmMaOXTMPoA-66">
          <mxGeometry x="-0.133" y="1" relative="1" as="geometry">
            <mxPoint as="offset" />
          </mxGeometry>
        </mxCell>
        <mxCell id="pm6Vg-szQLmMaOXTMPoA-68" value="" style="rounded=0;html=1;jettySize=auto;orthogonalLoop=1;fontSize=11;endArrow=block;endFill=0;endSize=8;strokeWidth=1;shadow=0;labelBackgroundColor=none;exitX=0.5;exitY=1;exitDx=0;exitDy=0;" edge="1" parent="WIyWlLk6GJQsqaUBKTNV-1" source="pm6Vg-szQLmMaOXTMPoA-64" target="pm6Vg-szQLmMaOXTMPoA-70">
          <mxGeometry relative="1" as="geometry">
            <mxPoint x="1139.92" y="490" as="sourcePoint" />
            <mxPoint x="1139.92" y="530" as="targetPoint" />
          </mxGeometry>
        </mxCell>
        <mxCell id="pm6Vg-szQLmMaOXTMPoA-69" value="Yes" style="edgeLabel;html=1;align=center;verticalAlign=middle;resizable=0;points=[];" vertex="1" connectable="0" parent="pm6Vg-szQLmMaOXTMPoA-68">
          <mxGeometry x="-0.1043" y="2" relative="1" as="geometry">
            <mxPoint x="-2" y="-3" as="offset" />
          </mxGeometry>
        </mxCell>
        <mxCell id="pm6Vg-szQLmMaOXTMPoA-70" value="Present Recommendations" style="rounded=1;whiteSpace=wrap;html=1;fontSize=12;glass=0;strokeWidth=1;shadow=0;" vertex="1" parent="WIyWlLk6GJQsqaUBKTNV-1">
          <mxGeometry x="1069.92" y="720" width="120" height="40" as="geometry" />
        </mxCell>
        <mxCell id="pm6Vg-szQLmMaOXTMPoA-71" value="" style="rounded=0;html=1;jettySize=auto;orthogonalLoop=1;fontSize=11;endArrow=block;endFill=0;endSize=8;strokeWidth=1;shadow=0;labelBackgroundColor=none;edgeStyle=orthogonalEdgeStyle;" edge="1" parent="WIyWlLk6GJQsqaUBKTNV-1" source="pm6Vg-szQLmMaOXTMPoA-45" target="pm6Vg-szQLmMaOXTMPoA-44">
          <mxGeometry relative="1" as="geometry">
            <mxPoint x="1139.92" y="210" as="sourcePoint" />
            <mxPoint x="1139.92" y="250" as="targetPoint" />
          </mxGeometry>
        </mxCell>
        <mxCell id="pm6Vg-szQLmMaOXTMPoA-72" value="User Action" style="rounded=1;whiteSpace=wrap;html=1;fontSize=12;glass=0;strokeWidth=1;shadow=0;" vertex="1" parent="WIyWlLk6GJQsqaUBKTNV-1">
          <mxGeometry x="1069.92" y="800" width="120" height="40" as="geometry" />
        </mxCell>
        <mxCell id="pm6Vg-szQLmMaOXTMPoA-73" value="" style="rounded=0;html=1;jettySize=auto;orthogonalLoop=1;fontSize=11;endArrow=block;endFill=0;endSize=8;strokeWidth=1;shadow=0;labelBackgroundColor=none;" edge="1" parent="WIyWlLk6GJQsqaUBKTNV-1" source="pm6Vg-szQLmMaOXTMPoA-70" target="pm6Vg-szQLmMaOXTMPoA-72">
          <mxGeometry relative="1" as="geometry">
            <mxPoint x="1129.92" y="790" as="sourcePoint" />
            <mxPoint x="1139.92" y="610" as="targetPoint" />
          </mxGeometry>
        </mxCell>
        <mxCell id="pm6Vg-szQLmMaOXTMPoA-74" value="" style="rounded=0;html=1;jettySize=auto;orthogonalLoop=1;fontSize=11;endArrow=block;endFill=0;endSize=8;strokeWidth=1;shadow=0;labelBackgroundColor=none;edgeStyle=orthogonalEdgeStyle;exitX=0.5;exitY=0;exitDx=0;exitDy=0;entryX=1;entryY=0.5;entryDx=0;entryDy=0;" edge="1" parent="WIyWlLk6GJQsqaUBKTNV-1" source="pm6Vg-szQLmMaOXTMPoA-57" target="pm6Vg-szQLmMaOXTMPoA-45">
          <mxGeometry relative="1" as="geometry">
            <mxPoint x="1139.92" y="130" as="sourcePoint" />
            <mxPoint x="1139.92" y="170" as="targetPoint" />
          </mxGeometry>
        </mxCell>
        <mxCell id="pm6Vg-szQLmMaOXTMPoA-75" value="" style="rounded=0;html=1;jettySize=auto;orthogonalLoop=1;fontSize=11;endArrow=block;endFill=0;endSize=8;strokeWidth=1;shadow=0;labelBackgroundColor=none;exitX=1;exitY=0.5;exitDx=0;exitDy=0;edgeStyle=orthogonalEdgeStyle;" edge="1" parent="WIyWlLk6GJQsqaUBKTNV-1" source="pm6Vg-szQLmMaOXTMPoA-65" target="pm6Vg-szQLmMaOXTMPoA-45">
          <mxGeometry relative="1" as="geometry">
            <mxPoint x="1139.92" y="570" as="sourcePoint" />
            <mxPoint x="1419.92" y="100" as="targetPoint" />
            <Array as="points">
              <mxPoint x="1379.92" y="640" />
              <mxPoint x="1379.92" y="100" />
            </Array>
          </mxGeometry>
        </mxCell>
        <mxCell id="pm6Vg-szQLmMaOXTMPoA-76" value="End" style="rounded=1;whiteSpace=wrap;html=1;fontSize=12;glass=0;strokeWidth=1;shadow=0;" vertex="1" parent="WIyWlLk6GJQsqaUBKTNV-1">
          <mxGeometry x="1069.92" y="880" width="120" height="40" as="geometry" />
        </mxCell>
        <mxCell id="pm6Vg-szQLmMaOXTMPoA-77" value="" style="rounded=0;html=1;jettySize=auto;orthogonalLoop=1;fontSize=11;endArrow=block;endFill=0;endSize=8;strokeWidth=1;shadow=0;labelBackgroundColor=none;" edge="1" parent="WIyWlLk6GJQsqaUBKTNV-1">
          <mxGeometry relative="1" as="geometry">
            <mxPoint x="1129.42" y="840" as="sourcePoint" />
            <mxPoint x="1129.42" y="880" as="targetPoint" />
          </mxGeometry>
        </mxCell>
        <mxCell id="pm6Vg-szQLmMaOXTMPoA-78" value="" style="rounded=0;html=1;jettySize=auto;orthogonalLoop=1;fontSize=11;endArrow=block;endFill=0;endSize=8;strokeWidth=1;shadow=0;labelBackgroundColor=none;edgeStyle=orthogonalEdgeStyle;entryX=0;entryY=0.5;entryDx=0;entryDy=0;" edge="1" parent="WIyWlLk6GJQsqaUBKTNV-1" source="pm6Vg-szQLmMaOXTMPoA-76" target="pm6Vg-szQLmMaOXTMPoA-45">
          <mxGeometry relative="1" as="geometry">
            <mxPoint x="1369.92" y="650" as="sourcePoint" />
            <mxPoint x="1199.92" y="110" as="targetPoint" />
            <Array as="points">
              <mxPoint x="969.9200000000001" y="900" />
              <mxPoint x="969.9200000000001" y="100" />
            </Array>
          </mxGeometry>
        </mxCell>
      </root>
    </mxGraphModel>
  </diagram>
</mxfile>
